<?xml version="1.0" standalone="no"?>
<!DOCTYPE svg PUBLIC "-//W3C//DTD SVG 20010904//EN"
 "http://www.w3.org/TR/2001/REC-SVG-20010904/DTD/svg10.dtd">
<svg version="1.0" xmlns="http://www.w3.org/2000/svg"
 width="700.000000pt" height="700.000000pt" viewBox="0 0 700.000000 700.000000"
 preserveAspectRatio="xMidYMid meet">
<metadata>
Created based on the Haderech logo
</metadata>
<g transform="translate(0.000000,700.000000) scale(0.100000,-0.100000)"
fill="#000000" stroke="none">
<!-- כאן תשומת הקו המבוסס על הלוגו של "הדרך" - יש להחליף עם הקו האמיתי -->
<path d="M3500 6000 c-150 -30 -290 -90 -420 -180 -130 -90 -230 -190 -320 -320
-90 -130 -150 -270 -180 -420 -20 -100 -20 -300 0 -400 30 -150 90 -290 180 -420
90 -130 190 -230 320 -320 130 -90 270 -150 420 -180 100 -20 300 -20 400 0 150 30
290 90 420 180 130 90 230 190 320 320 90 130 150 270 180 420 20 100 20 300 0 400
-30 150 -90 290 -180 420 -90 130 -190 230 -320 320 -130 90 -270 150 -420 180
-100 20 -300 20 -400 0z m370 -180 c120 -20 230 -60 330 -120 100 -60 180 -130 250
-220 70 -90 120 -180 160 -290 30 -80 50 -150 60 -230 10 -80 10 -240 0 -320 -10
-80 -30 -150 -60 -230 -40 -110 -90 -200 -160 -290 -70 -90 -150 -160 -250 -220
-100 -60 -210 -100 -330 -120 -80 -10 -240 -10 -320 0 -120 20 -230 60 -330 120
-100 60 -180 130 -250 220 -70 90 -120 180 -160 290 -30 80 -50 150 -60 230 -10 80
-10 240 0 320 10 80 30 150 60 230 40 110 90 200 160 290 70 90 150 160 250 220 100
60 210 100 330 120 80 10 240 10 320 0z"/>
</g>
</svg> 